<?xml version="1.0" standalone="no"?>
<!DOCTYPE svg PUBLIC "-//W3C//DTD SVG 20010904//EN"
 "http://www.w3.org/TR/2001/REC-SVG-20010904/DTD/svg10.dtd">
<svg version="1.0" xmlns="http://www.w3.org/2000/svg"
 width="380" viewBox="0 0 963.000000 867.000000"
 preserveAspectRatio="xMidYMid meet">

<g transform="translate(0.000000,867.000000) scale(0.100000,-0.100000)"
fill="#000000" stroke="none">
<path d="M4445 7960 c-461 -21 -471 -23 -764 -237 -55 -40 -122 -84 -150 -99
-28 -14 -54 -31 -58 -38 -5 -8 -3 -8 8 1 8 6 17 12 22 12 4 0 24 8 45 17 20 9
47 20 59 24 12 5 61 33 110 63 145 89 214 124 293 148 l75 24 715 0 c866 -1
742 21 1125 -198 77 -44 185 -92 185 -82 0 3 -17 14 -39 24 -21 11 -82 51
-135 88 -339 239 -318 233 -806 253 -248 11 -443 10 -685 0z"/>
<path d="M4015 7797 c-141 -60 -308 -160 -342 -205 -22 -27 -16 -61 13 -72 16
-6 319 -10 794 -10 713 0 1085 -8 1320 -29 90 -8 110 -8 98 4 -9 9 -251 54
-348 64 -162 17 -217 21 -480 36 -305 18 -613 41 -730 56 -108 13 -239 52
-268 79 -24 23 -29 59 -10 78 21 21 4 20 -47 -1z"/>
<path d="M2978 7521 c-69 -3 -130 -9 -133 -13 -14 -13 40 -67 87 -88 83 -36
142 -42 242 -25 50 9 91 17 93 19 2 2 -47 3 -109 3 -130 0 -198 14 -198 42 0
22 40 38 117 47 29 4 50 11 47 15 -3 5 -8 8 -12 7 -4 -1 -64 -4 -134 -7z"/>
<path d="M6538 7504 c108 -19 129 -43 65 -71 -29 -13 -68 -17 -160 -16 -68 0
-123 -1 -123 -2 0 -2 28 -8 63 -14 158 -27 273 -7 341 61 32 32 37 41 25 49
-8 5 -75 8 -149 8 l-135 -1 73 -14z"/>
<path d="M4190 7453 c-290 -14 -617 -40 -680 -53 -25 -5 -109 -19 -187 -31
-79 -12 -141 -24 -139 -27 3 -2 58 1 123 7 334 31 743 44 1398 45 777 1 1216
-11 1578 -45 65 -6 120 -9 123 -7 3 4 -162 35 -281 53 -381 58 -1352 88 -1935
58z"/>
<path d="M6275 7203 c-51 -5 -157 -29 -215 -50 -59 -21 -137 -71 -230 -147
-185 -151 -261 -184 -507 -221 -147 -22 -908 -22 -1056 0 -218 33 -326 78
-472 196 -167 136 -231 170 -388 208 -56 13 -127 15 -127 2 0 -5 15 -12 34
-15 141 -27 258 -95 375 -221 157 -168 238 -212 471 -261 120 -24 439 -37 780
-31 342 7 481 20 605 57 39 12 79 24 90 27 11 3 29 13 40 22 11 9 41 27 67 39
28 15 89 68 155 136 75 77 131 126 179 153 66 39 186 83 225 83 10 0 19 7 19
15 0 8 -1 14 -2 13 -2 -1 -21 -3 -43 -5z"/>
<path d="M3195 7138 c17 -6 33 -15 36 -20 3 -5 21 -12 38 -14 68 -11 191 -100
191 -138 0 -43 -103 -59 -222 -36 -91 18 -183 43 -192 52 -6 4 -19 8 -30 8
-25 0 -109 31 -117 43 -4 5 -11 7 -17 3 -9 -6 -65 13 -107 35 -11 6 2 -12 30
-40 27 -28 55 -51 61 -51 7 0 14 -4 16 -9 4 -11 139 -97 166 -105 12 -4 22
-12 22 -18 0 -6 3 -8 6 -5 4 4 19 0 33 -8 34 -18 153 -60 249 -86 61 -17 109
-22 230 -23 141 -2 152 -1 152 16 0 44 -71 168 -127 219 -35 33 -160 114 -190
123 -13 4 -23 11 -23 16 0 5 -6 7 -13 4 -8 -3 -24 -1 -38 4 -29 12 -26 11 -96
27 -68 17 -101 18 -58 3z"/>
<path d="M6356 7142 c-3 -2 -26 -6 -53 -8 -60 -6 -167 -40 -183 -60 -7 -8 -18
-14 -24 -14 -14 0 -136 -96 -154 -122 -7 -10 -18 -15 -24 -12 -6 4 -8 2 -4 -4
3 -6 -3 -28 -15 -49 -70 -121 -72 -147 -11 -157 87 -14 338 2 367 23 6 4 48
18 95 31 47 13 90 28 95 34 15 16 106 47 118 39 5 -3 7 -1 4 4 -4 6 4 14 18
17 14 4 25 11 25 16 0 6 7 10 15 10 8 0 15 4 15 9 0 5 14 14 31 21 17 8 40 23
50 34 11 11 19 17 19 14 0 -13 78 69 84 88 5 16 2 19 -17 19 -12 -1 -38 -8
-57 -17 -92 -39 -299 -98 -347 -98 -17 0 -33 -4 -35 -10 -4 -12 -127 -24 -171
-16 -19 4 -38 14 -41 22 -9 23 32 69 84 96 24 13 51 31 60 41 8 9 24 19 35 21
11 3 38 11 60 19 l40 15 -37 0 c-21 -1 -40 -3 -42 -6z"/>
<path d="M3410 6610 c34 -9 151 -32 260 -50 96 -17 415 -39 725 -51 274 -10
679 -8 1050 7 109 4 448 36 512 48 10 2 71 14 136 26 65 12 116 24 113 27 -2
3 -44 0 -93 -6 -124 -15 -227 -22 -388 -27 -77 -2 -180 -6 -230 -9 -324 -20
-1386 -14 -1720 11 -67 5 -273 22 -350 29 -45 4 -47 4 -15 -5z"/>
<path d="M2626 6340 c-7 -53 -52 -207 -66 -225 -12 -17 -70 -185 -70 -204 0
-36 43 -72 143 -120 56 -27 140 -60 187 -75 47 -15 92 -30 100 -33 25 -10 31
-12 132 -37 54 -14 101 -27 106 -30 7 -4 228 -46 377 -71 107 -18 291 -39 635
-71 183 -16 659 -24 923 -14 160 6 303 12 317 14 14 2 63 7 110 11 589 48
1031 137 1375 277 156 63 205 100 205 155 0 18 -24 95 -54 171 -30 75 -62 173
-72 217 -17 79 -18 79 -27 45 -13 -51 -2 -203 22 -290 24 -87 26 -128 7 -152
-40 -53 -329 -150 -571 -192 -49 -9 -101 -18 -115 -22 -43 -9 -339 -42 -495
-54 -82 -7 -168 -14 -190 -16 -361 -31 -1226 -31 -1620 0 -362 29 -482 42
-690 72 -163 23 -458 101 -552 144 -35 17 -68 30 -73 30 -14 0 -70 58 -70 72
0 7 12 60 26 118 28 112 37 278 17 314 -8 15 -11 10 -17 -34z"/>
<path d="M4155 6274 c-359 -26 -523 -72 -722 -206 -103 -69 -213 -114 -352
-143 -108 -22 -112 -24 -61 -24 135 -2 288 29 409 83 42 19 121 54 176 78 104
46 212 76 375 104 78 14 202 18 707 21 670 5 832 -1 1038 -42 126 -25 161 -38
425 -153 135 -59 235 -82 380 -88 l105 -4 -120 25 c-66 14 -129 30 -140 35
-11 5 -44 19 -73 30 -28 11 -86 42 -127 69 -190 127 -309 169 -565 202 -79 10
-1334 21 -1455 13z"/>
<path d="M203 5344 c-24 -14 -54 -44 -68 -68 l-25 -43 0 -753 0 -753 25 -43
c15 -26 43 -54 69 -69 l43 -25 481 0 482 0 6 -27 c52 -241 179 -442 399 -632
195 -168 384 -295 884 -593 185 -110 462 -277 616 -371 705 -429 861 -516
1075 -601 261 -103 418 -131 689 -123 152 4 205 10 291 30 147 35 264 78 415
152 208 101 270 141 990 628 253 172 399 264 752 478 375 228 501 309 628 404
248 187 377 354 439 567 l24 83 488 5 489 5 38 23 c20 13 48 43 62 66 l25 43
0 753 0 753 -25 43 c-15 26 -43 54 -69 69 l-43 25 -4569 0 -4569 0 -42 -26z
m2217 -462 c0 -4 -9 -36 -21 -70 l-21 -62 -134 0 -134 0 0 -55 0 -55 131 0
131 0 29 -29 c29 -29 29 -30 29 -155 0 -137 -9 -169 -49 -185 -14 -5 -122 -12
-238 -16 -176 -5 -213 -4 -213 7 0 8 9 42 21 76 l21 62 134 0 134 0 0 49 0 49
-136 4 c-135 3 -136 3 -160 31 -23 27 -24 35 -24 155 0 137 8 168 50 189 28
14 450 19 450 5z m528 -4 c-2 -7 -12 -39 -22 -70 l-20 -58 -138 0 -138 0 0
-55 0 -55 135 0 135 0 0 -70 0 -70 -135 0 -135 0 0 -50 0 -50 161 0 c123 0
160 -3 157 -12 -2 -7 -12 -39 -22 -70 l-20 -58 -228 0 -228 0 0 315 0 315 251
0 c195 0 250 -3 247 -12z m200 -235 l2 -242 136 -3 136 -3 24 -65 c13 -36 24
-66 24 -67 0 -2 -112 -3 -250 -3 l-250 0 0 315 0 316 88 -3 87 -3 3 -242z
m840 235 c-2 -7 -12 -39 -22 -70 l-20 -58 -138 0 -138 0 0 -55 0 -55 135 0
135 0 0 -70 0 -70 -135 0 -135 0 0 -50 0 -50 161 0 c123 0 160 -3 157 -12 -2
-7 -12 -39 -22 -70 l-20 -58 -228 0 -228 0 0 315 0 315 251 0 c195 0 250 -3
247 -12z m530 0 c-2 -7 -12 -39 -22 -70 l-20 -58 -138 0 -138 0 0 -175 0 -175
161 0 c123 0 160 -3 157 -12 -2 -7 -12 -39 -22 -70 l-20 -58 -203 0 c-203 0
-204 0 -228 25 l-25 24 0 266 0 266 25 24 24 25 226 0 c176 0 226 -3 223 -12z
m450 -60 l3 -68 -46 0 -45 0 0 -344 0 -343 -76 -27 c-41 -15 -82 -30 -90 -33
-12 -4 -14 47 -14 371 l0 376 -80 0 -80 0 0 70 0 70 213 -2 212 -3 3 -67z
m1022 58 c0 -8 -10 -39 -21 -70 l-22 -56 -138 0 -139 0 0 -175 0 -175 160 0
c181 0 173 5 139 -85 l-20 -55 -202 0 c-192 0 -202 1 -224 22 -23 21 -23 22
-23 292 0 263 1 270 22 293 21 23 24 23 245 23 185 0 223 -2 223 -14z m552
-301 l107 -315 -180 0 -180 0 3 68 3 67 66 5 65 5 -42 129 -42 129 -14 -34
c-8 -19 -41 -109 -73 -201 l-60 -168 -88 0 c-81 0 -88 2 -82 18 4 9 54 147
111 306 58 160 107 293 110 298 3 4 47 8 97 8 l92 0 107 -315z m583 305 c43
-16 57 -67 53 -193 -3 -105 -4 -110 -31 -133 -18 -15 -41 -24 -63 -24 -19 0
-34 -2 -34 -5 0 -3 27 -62 60 -132 33 -69 60 -130 60 -135 0 -14 -166 -10
-177 5 -6 6 -38 72 -72 145 -53 114 -62 141 -59 180 l3 47 63 3 62 3 0 54 0
55 -75 0 -76 0 7 -245 7 -245 -91 0 -92 0 0 315 0 315 214 0 c118 0 226 -4
241 -10z m575 3 c0 -5 -10 -36 -22 -70 l-23 -63 -132 0 -133 0 0 -55 0 -55
129 0 c122 0 131 -1 158 -24 27 -23 27 -26 31 -159 l4 -136 -30 -31 -30 -30
-201 0 -200 0 -20 55 c-34 90 -42 85 134 85 l155 0 0 49 0 49 -136 4 c-135 3
-136 3 -160 31 -23 27 -24 35 -24 155 0 137 8 168 50 189 28 14 450 19 450 6z
m-6110 -1330 c41 -126 163 -301 295 -419 186 -167 366 -287 1030 -686 270
-162 607 -365 750 -452 310 -188 514 -290 696 -350 177 -58 288 -76 469 -76
178 0 294 18 455 71 238 79 433 191 950 545 349 239 502 337 874 563 455 276
574 358 713 489 90 85 152 168 201 270 l39 82 80 0 80 0 -6 -27 c-4 -16 -27
-70 -53 -122 -40 -83 -59 -108 -152 -200 -155 -155 -272 -235 -868 -596 -164
-99 -433 -270 -598 -381 -165 -110 -410 -274 -545 -365 -449 -300 -667 -405
-950 -455 -127 -22 -341 -20 -474 6 -290 56 -503 159 -1151 555 -181 111 -519
314 -750 452 -609 363 -807 498 -983 667 -139 134 -216 246 -263 385 -29 83
-30 81 65 81 l84 0 12 -37z m2844 -123 c19 -18 19 -24 8 -77 -14 -68 -68 -178
-145 -294 -63 -96 -80 -155 -81 -291 -1 -92 5 -108 32 -92 25 14 80 133 92
195 23 125 125 269 189 269 24 0 40 -8 59 -30 19 -21 35 -30 58 -30 20 0 34
-6 38 -16 4 -9 -9 -80 -29 -158 -19 -77 -36 -161 -37 -186 -3 -39 0 -45 17
-45 28 0 87 118 151 304 15 46 44 116 64 155 34 68 37 71 73 74 38 3 77 -18
77 -41 0 -6 -3 -7 -6 -4 -15 14 -42 -15 -54 -58 -13 -45 -11 -107 9 -315 l7
-75 15 35 c9 19 21 51 26 70 45 148 81 249 112 312 35 70 38 73 74 76 38 3 77
-18 77 -41 0 -6 -3 -7 -6 -4 -15 14 -42 -15 -54 -58 -13 -45 -11 -107 9 -315
l7 -75 15 35 c34 77 51 130 77 244 26 115 28 120 56 127 35 10 66 -5 66 -31 0
-10 -18 -92 -40 -181 -42 -171 -50 -239 -27 -239 33 0 76 84 134 263 29 90 42
116 76 152 23 24 54 46 70 50 53 14 108 -16 106 -58 l0 -22 -9 21 c-12 31 -33
35 -68 14 -57 -35 -114 -193 -115 -325 -1 -80 11 -110 48 -119 72 -18 149 76
185 226 26 106 62 203 87 230 9 10 26 18 37 18 12 0 30 7 40 15 50 38 112 -1
137 -85 14 -46 3 -112 -37 -219 -30 -80 -30 -85 4 -76 36 9 62 33 79 73 13 32
27 40 38 22 10 -17 -35 -90 -68 -110 -18 -11 -48 -20 -68 -20 -27 0 -43 -8
-68 -34 -67 -69 -145 -74 -183 -10 l-20 34 -42 -44 c-51 -55 -103 -73 -163
-57 -45 12 -93 60 -93 91 0 33 -16 30 -41 -8 -13 -20 -36 -43 -52 -52 -25 -14
-30 -13 -65 5 -24 13 -41 31 -47 51 l-10 31 -24 -37 c-13 -21 -31 -60 -40 -86
-25 -75 -103 -115 -162 -84 -21 12 -26 32 -5 24 26 -10 73 43 86 98 12 50 12
79 -9 313 l-6 69 -22 -69 c-12 -39 -25 -85 -28 -103 -6 -35 -58 -146 -80 -172
-8 -8 -22 -40 -32 -70 -27 -81 -102 -123 -164 -90 -21 12 -26 32 -5 24 26 -10
73 43 86 98 12 50 12 79 -9 313 l-6 69 -23 -74 c-34 -106 -117 -275 -150 -300
-34 -27 -78 -21 -111 17 -21 25 -23 34 -19 106 l5 80 -20 -39 c-27 -54 -67
-94 -93 -94 -12 0 -35 11 -51 24 l-29 24 -27 -48 c-32 -56 -70 -90 -102 -90
-27 0 -72 33 -80 61 -6 17 -11 14 -50 -29 -55 -61 -89 -76 -158 -70 -93 8
-145 70 -155 184 -7 95 31 312 78 437 24 64 95 148 140 167 64 26 141 -17 139
-79 0 -26 -1 -26 -16 7 -21 40 -42 41 -86 2 -102 -89 -176 -456 -126 -617 8
-23 19 -35 44 -43 78 -26 158 58 170 178 21 206 130 538 200 608 22 22 33 25
63 21 20 -4 45 -15 56 -27z m228 -220 c-22 -49 -31 -60 -50 -60 -22 0 -24 3
-17 36 13 72 22 84 59 84 l34 0 -26 -60z m782 24 c32 -31 7 -78 -38 -72 -39 4
-53 29 -38 62 13 30 51 35 76 10z"/>
<path d="M4393 3370 c-39 -62 -129 -297 -119 -307 5 -5 109 200 131 258 9 26
15 55 13 65 -3 15 -7 12 -25 -16z"/>
<path d="M6007 3092 c-32 -35 -69 -134 -74 -196 -4 -54 -1 -64 21 -91 31 -38
39 -31 72 64 30 88 43 203 24 226 -16 19 -23 19 -43 -3z"/>
<path d="M4536 3059 c-41 -33 -107 -175 -113 -247 -12 -125 42 -59 131 163 20
49 36 90 36 91 0 1 -6 4 -14 7 -8 3 -26 -3 -40 -14z"/>
<path d="M5861 2762 c-6 -32 -9 -67 -5 -76 10 -25 39 -19 74 16 l32 31 -25 13
c-14 8 -34 27 -44 45 l-20 31 -12 -60z"/>
</g>
</svg>
