<svg viewBox="0 0 60 60" width="14px" xmlns="http://www.w3.org/2000/svg"><g id="Page-1" fill="none" fill-rule="evenodd"><g id="035---Maps" fill="rgb(0,0,0)" fill-rule="nonzero"><path id="Shape" d="m58.76 8.205c-1.5916964-3.49628978-4.5494107-6.18547403-8.1809637-7.43821611-3.6315529-1.25274208-7.6182255-.95909657-11.0270363.81221611-7.2955323-2.47188582-15.264369-2.02648521-22.239 1.243-2.3403668 1.07793898-4.5263441 2.46351232-6.5 4.12-3.96575434 3.2954588-7.01287612 7.5595692-8.846 12.379-1.07416539 2.782814-1.71299825 5.7145643-1.894 8.692-.049.62-.073 1.271-.073 1.987-.00841026 10.5552067 5.53773579 20.3361771 14.6 25.748.5473333.3273333 1.1036667.6353333 1.669.924 4.241395 2.2010849 8.9525083 3.3429234 13.731 3.328 2.2258009.0045956 4.4448454-.2450217 6.614-.744.672-.148 1.3386667-.3193333 2-.514 1.9843346-.5871481 3.9007378-1.383275 5.717-2.375 5.6246811-3.0749925 10.1232655-7.8622036 12.843-13.667.008-.016.014-.033.021-.049 1.2011192-2.5570712 2.0298645-5.2729716 2.461-8.065.2295389-1.5178737.3445302-3.0508686.344-4.586-.0021192-2.8433441-.4098945-5.6718431-1.211-8.4.7982149-2.48064 1.20674-5.0701022 1.211-7.676.0070048-1.9737747-.416143-3.92537369-1.24-5.719zm-1.82.83c.7047137 1.5331742 1.066458 3.2016344 1.06 4.889-.0406562 4.7017031-1.431891 9.2926392-4.008 13.226-.069.12-.144.229-.221.341l-.071.109c-2.093648 3.1338122-4.696137 5.8958304-7.7 8.172-3.0037379-2.2794523-5.6061295-5.044071-7.7-8.18l-.077-.114c-.074-.108-.146-.213-.233-.361-2.5654071-3.9250891-3.9502427-8.5040708-3.99-13.193-.0061336-1.689584.356645-3.3601403 1.063-4.895 1.9561698-4.2827691 6.2320625-7.0297181 10.9404284-7.02842678 4.708366.00129132 8.9827513 2.75058532 10.9365716 7.03442678zm-27.227 33.734 12.45 12.449c-.106.051-.209.108-.316.158-.16.075-.322.147-.483.218-.4.1766667-.802.3433333-1.206.5-.146.057-.291.116-.437.17-.547.2-1.1.389-1.658.554-.046.014-.094.025-.14.038-.4.117-.811.215-1.22.314l-10.686-10.686c-.3904999-.3903819-1.0235001-.3903819-1.414 0l-8.058 8.058c-.227-.124-.456-.246-.68-.376-.113-.066-.228-.129-.34-.2-.459-.276-.911-.564-1.354-.868-.082-.056-.162-.117-.244-.174-.3606667-.254-.7166667-.5163333-1.068-.787-.13-.1-.259-.2-.388-.307s-.242-.2-.363-.3l6.2-6.2c.1880834-.1876085.2937876-.4423455.2937876-.708s-.1057042-.5203915-.2937876-.708l-16.197-16.195c.042-.545.088-1.089.162-1.627.006-.047.016-.092.023-.139.082-.577.186-1.15.306-1.719.038-.182.081-.363.123-.544.104-.452.22-.9013333.348-1.348.051-.177.1-.355.154-.531.03-.1.068-.193.1-.29l18.7 18.7c.3904999.3903819 1.0235001.3903819 1.414 0l10.259-10.263c.3903819-.3904999.3903819-1.0235001 0-1.414l-20.745-20.744c.119-.092.235-.188.355-.278.137-.1.274-.2.413-.3.3533333-.25333333.712-.49766667 1.076-.733.093-.06.185-.124.278-.184.4573333-.28733333.9216667-.56 1.393-.818.112-.061.225-.117.337-.177.24-.126.483-.243.725-.362l15.29 15.289c.7334881 2.8018002 1.8991414 5.4721752 3.455 7.915.091.158.189.3.288.45l.066.1c.7560449 1.1424823 1.5805526 2.2381526 2.469 3.281l-9.39 9.371c-.187777.1875683-.2932867.4420908-.2932867.7075s.1055097.5199317.2932867.7075zm-24.932-.6c-1.75870987-3.6603562-2.70273596-7.6585643-2.767-11.719l7.241 7.242zm32.568-39.177c-1.7694718 1.37863003-3.1783703 3.16565957-4.106 5.208-.8251723 1.79506731-1.2493421 3.7483645-1.243 5.724.0051208.9496191.0645512 1.8981681.178 2.841l-12.706-12.706c3.3405869-1.36931246 6.917676-2.06889703 10.528-2.059 2.4829451.00143664 4.9545372.3350629 7.349.992zm-25.94 6.092 20.167 20.167-8.846 8.849-18.65-18.653c1.61540949-3.9709697 4.123145-7.5168373 7.329-10.363zm-5.64 34.922 4.9-4.9 5.516 5.517-5.563 5.563c-1.89875486-1.8228762-3.53234627-3.9031554-4.853-6.18zm12.655 11.485 6.886-6.886 9.049 9.049c-5.4087948.8620565-10.9517093.1096671-15.935-2.163zm25.582-1.258-12.171-12.171 8.6-8.587c1.513189 1.6245685 3.1923464 3.0862062 5.01 4.361.3337325.2197805.7662675.2197805 1.1 0 .758316-.5216752 1.4877246-1.0841711 2.185-1.685l6.311 6.312c-2.4508584 4.916181-6.2868392 9.0076621-11.035 11.77zm13.994-24.233c.00107 1.4312797-.1052282 2.8606234-.318 4.276-.3359543 2.1426443-.9226479 4.238362-1.748 6.244l-5.707-5.707c1.9362058-1.8329253 3.658522-3.8793081 5.134-6.1l.062-.09c.1-.153.206-.3.281-.435.6685402-1.0612051 1.2697251-2.1633775 1.8-3.3.3219767 1.6851513.4880118 3.3963835.496 5.112z"/><path id="Shape" d="m46 23c4.9705627 0 9-4.0294373 9-9 0-4.97056275-4.0294373-9-9-9s-9 4.02943725-9 9c.0055111 4.9682782 4.0317218 8.9944889 9 9zm0-16c3.8659932 0 7 3.1340068 7 7s-3.1340068 7-7 7-7-3.1340068-7-7c.0044086-3.8641657 3.1358343-6.99559136 7-7z"/></g></g></svg>