<?xml version="1.0" encoding="iso-8859-1"?>
<!-- Generator: Adobe Illustrator 19.0.0, SVG Export Plug-In . SVG Version: 6.00 Build 0)  -->
<svg version="1.1" id="Capa_1" xmlns="http://www.w3.org/2000/svg" xmlns:xlink="http://www.w3.org/1999/xlink" width="14px"
	 viewBox="0 0 512 512" style="enable-background:new 0 0 512 512;" xml:space="preserve">
<g>
	<g>
		<path d="M475.202,167.327L512,135.786v-16.073l-36.798-31.541h-26.826v15.029h21.268l27.327,23.424v2.247l-27.327,23.425H279.546
			v-49.096h152.798V88.172H279.546V71.139h11.629l12.418-12.418V36.465l-12.418-12.418h-11.629V12.418L267.128,0h-22.256
			l-12.417,12.418v11.629h-11.629l-12.418,12.418v22.256l12.418,12.417h11.629v49.096H36.798L0,151.775v16.073l36.798,31.541
			h195.656v192.877h15.029V199.389V71.139h17.033v17.033v384.751h-17.033v-64.626h-15.029v64.626h-25.049v-8.517h-15.029v8.517
			h-24.047v24.047H127.75V512H384.25v-15.029h-40.579v-24.047h-24.047v-8.517h-15.029v8.517h-25.049V263.515h163.594l36.798-31.541
			v-16.073l-36.798-31.541H279.546v-17.033H475.202z M232.454,184.36H42.357l-27.327-23.424v-2.247l27.327-23.425h190.097V184.36z
			 M247.483,18.642l3.613-3.613h9.806l3.614,3.613v5.405h-17.033V18.642z M328.642,487.953v9.018H183.358v-9.018H328.642z
			 M437.581,199.389l27.327,23.424v2.247l-27.327,23.425H279.546v-49.096H437.581z M232.454,56.11h-5.405l-3.613-3.613V42.69
			l3.613-3.614h5.405h47.092h5.405l3.613,3.613v9.806l-3.613,3.614h-5.405H232.454z"/>
	</g>
</g>
<g>
	<g>
		<rect x="312.11" y="120.235" width="16.031" height="15.029"/>
	</g>
</g>
<g>
	<g>
		<rect x="448.376" y="120.235" width="16.031" height="15.029"/>
	</g>
</g>
<g>
	<g>
		<rect x="344.172" y="120.235" width="88.172" height="15.029"/>
	</g>
</g>
<g>
	<g>
		<rect x="312.11" y="216.423" width="72.141" height="15.029"/>
	</g>
</g>
<g>
	<g>
		<rect x="400.282" y="216.423" width="24.047" height="15.029"/>
	</g>
</g>
<g>
	<g>
		<rect x="63.624" y="152.297" width="24.047" height="15.029"/>
	</g>
</g>
<g>
	<g>
		<rect x="175.843" y="152.297" width="24.047" height="15.029"/>
	</g>
</g>
<g>
	<g>
		<rect x="103.703" y="152.297" width="56.11" height="15.029"/>
	</g>
</g>
<g>
	<g>
		<rect x="400.282" y="496.971" width="16.031" height="15.029"/>
	</g>
</g>
<g>
	<g>
		<rect x="95.687" y="496.971" width="16.031" height="15.029"/>
	</g>
</g>
<g>
</g>
<g>
</g>
<g>
</g>
<g>
</g>
<g>
</g>
<g>
</g>
<g>
</g>
<g>
</g>
<g>
</g>
<g>
</g>
<g>
</g>
<g>
</g>
<g>
</g>
<g>
</g>
<g>
</g>
</svg>
