<?xml version="1.0" encoding="iso-8859-1"?>
<!-- Generator: Adobe Illustrator 19.0.0, SVG Export Plug-In . SVG Version: 6.00 Build 0)  -->
<svg version="1.1" id="Capa_1" xmlns="http://www.w3.org/2000/svg" xmlns:xlink="http://www.w3.org/1999/xlink" width="14px"
	 viewBox="0 0 472 472" style="enable-background:new 0 0 472 472;" xml:space="preserve">
<g>
	<g>
		<path d="M332,112h48c4.418,0,8-3.582,8-8V8c0-4.418-3.582-8-8-8h-48c-4.418,0-8,3.582-8,8v40h-48V24c0-4.418-3.582-8-8-8h-64
			c-4.418,0-8,3.582-8,8v24h-48V8c0-4.418-3.582-8-8-8H92c-4.418,0-8,3.582-8,8v96c0,4.418,3.582,8,8,8h48c4.418,0,8-3.582,8-8V64
			h48v56c0,2.122,0.844,4.156,2.344,5.656l5.656,5.656v9.376l-21.656,21.656c-1.5,1.5-2.344,3.534-2.344,5.656v136h-8
			c-4.418,0-8,3.582-8,8v64c0,4.418,3.582,8,8,8h8v24h-32v-40c0-4.418-3.582-8-8-8H92c-4.418,0-8,3.582-8,8v96c0,4.418,3.582,8,8,8
			h48c4.418,0,8-3.582,8-8v-40h32v40h16v-40h17.472c4.335,12.442,17.935,19.014,30.376,14.68c6.877-2.396,12.284-7.802,14.68-14.68
			H324v40c0,4.418,3.582,8,8,8h48c4.418,0,8-3.582,8-8v-96c0-4.418-3.582-8-8-8h-48c-4.418,0-8,3.582-8,8v40h-65.472
			c-2.42-6.776-7.753-12.108-14.528-14.528v-238.16l29.656-29.656c1.5-1.5,2.344-3.534,2.344-5.656V64h16v88h-16v16h48v-16h-16V64
			h16v40C324,108.418,327.582,112,332,112z M340,16h32v80h-32V16z M132,96h-32V16h32V96z M132,456h-32v-80h32V456z M340,376h32v80
			h-32V376z M180,368v-48h16v48H180z M213.472,408H196v-24h8c4.418,0,8-3.582,8-8v-64c0-4.418-3.582-8-8-8h-8V171.312l21.656-21.656
			c0.802-0.823,1.414-1.811,1.792-2.896l8.552,8.552v238.16C221.225,395.892,215.892,401.224,213.472,408z M236,424
			c-4.418,0-8-3.582-8-8s3.582-8,8-8s8,3.582,8,8S240.418,424,236,424z M260,116.688l-24,24l-24-24V32h48V116.688z"/>
	</g>
</g>
<g>
</g>
<g>
</g>
<g>
</g>
<g>
</g>
<g>
</g>
<g>
</g>
<g>
</g>
<g>
</g>
<g>
</g>
<g>
</g>
<g>
</g>
<g>
</g>
<g>
</g>
<g>
</g>
<g>
</g>
</svg>
