<svg viewBox="0 0 512.0006 512" width="14px" xmlns="http://www.w3.org/2000/svg"><path d="m511.972656 252.125c-1.007812-67.855469-28.0625-131.320312-76.1875-178.695312-48.097656-47.355469-111.9375-73.429688-179.785156-73.429688-.023438 0-.054688 0-.078125 0-68.351563.0195312-132.609375 26.648438-180.941406 74.980469s-74.9609378 112.589843-74.980469 180.941406c-.0195312 67.871094 26.058594 131.75 73.429688 179.863281 47.375 48.125 110.839843 75.179688 178.691406 76.1875.949218.011719 1.898437.023438 2.84375.027344h.296875c21.601562 0 41.996093-9.382812 55.996093-25.769531 14.234376-16.664063 20.375-38.71875 16.84375-60.515625-.84375-5.195313-1.203124-10.53125-1.074218-15.855469.53125-21.765625 9.394531-42.320313 24.953125-57.878906 15.558593-15.558594 36.117187-24.421875 57.878906-24.957031 5.324219-.128907 10.660156.230468 15.859375 1.074218 21.789062 3.53125 43.851562-2.605468 60.515625-16.839844 16.460937-14.066406 25.851563-34.582031 25.765625-56.300781-.003906-.941406-.015625-1.890625-.027344-2.832031zm-45.230468 36.324219c-9.945313 8.5-23.15625 12.15625-36.226563 10.039062-7.023437-1.140625-14.226563-1.628906-21.390625-1.453125-29.5.722656-57.328125 12.703125-78.359375 33.734375-21.027344 21.027344-33.007813 48.855469-33.730469 78.355469v.003906c-.175781 7.171875.3125 14.367188 1.449219 21.386719 2.121094 13.078125-1.539063 26.28125-10.035156 36.230469-8.410157 9.839844-20.1875 15.253906-33.183594 15.253906-.058594 0-.121094 0-.183594 0-.832031-.003906-1.667969-.011719-2.511719-.023438-59.925781-.890624-115.953124-24.769531-157.765624-67.238281-41.808594-42.464843-64.824219-98.863281-64.804688-158.808593.019531-60.339844 23.527344-117.066407 66.195312-159.734376 42.667969-42.667968 99.394532-66.175781 159.734376-66.195312h.070312c59.917969 0 116.292969 23.015625 158.738281 64.804688 42.46875 41.8125 66.347657 97.84375 67.238281 157.773437.011719.839844.019532 1.675781.019532 2.507813.054687 13.066406-5.363282 24.914062-15.253906 33.363281zm0 0"/><path d="m198.597656 72.417969c-24.8125 0-45 20.1875-45 45s20.1875 45 45 45 45-20.1875 45-45-20.1875-45-45-45zm0 60c-8.269531 0-15-6.726563-15-15 0-8.269531 6.730469-15 15-15 8.273438 0 15 6.730469 15 15 0 8.273437-6.726562 15-15 15zm0 0"/><path d="m117.417969 243.597656c24.8125 0 45-20.1875 45-45s-20.1875-45-45-45-45 20.1875-45 45 20.1875 45 45 45zm0-60c8.269531 0 15 6.730469 15 15 0 8.273438-6.730469 15-15 15s-15-6.726562-15-15c0-8.269531 6.726562-15 15-15zm0 0"/><path d="m394.582031 153.597656c-24.8125 0-45 20.1875-45 45s20.1875 45 45 45 45-20.1875 45-45-20.183593-45-45-45zm0 60c-8.269531 0-15-6.726562-15-15 0-8.269531 6.730469-15 15-15 8.273438 0 15 6.730469 15 15 0 8.273438-6.726562 15-15 15zm0 0"/><path d="m117.417969 268.402344c-24.8125 0-45 20.1875-45 45s20.1875 45 45 45 45-20.1875 45-45-20.1875-45-45-45zm0 60c-8.269531 0-15-6.726563-15-15 0-8.269532 6.730469-15 15-15s15 6.730468 15 15c0 8.273437-6.730469 15-15 15zm0 0"/><path d="m313.402344 72.417969c-24.8125 0-45 20.1875-45 45s20.1875 45 45 45 45-20.1875 45-45-20.1875-45-45-45zm0 60c-8.269532 0-15-6.726563-15-15 0-8.269531 6.730468-15 15-15 8.269531 0 15 6.730469 15 15 0 8.273437-6.726563 15-15 15zm0 0"/><path d="m198.597656 349.582031c-24.8125 0-45 20.1875-45 45s20.1875 45 45 45 45-20.1875 45-45-20.1875-45-45-45zm0 60c-8.269531 0-15-6.726562-15-15 0-8.269531 6.730469-15 15-15 8.273438 0 15 6.730469 15 15 0 8.273438-6.726562 15-15 15zm0 0"/></svg>