<?xml version="1.0" encoding="iso-8859-1"?>
<!-- Generator: Adobe Illustrator 16.0.0, SVG Export Plug-In . SVG Version: 6.00 Build 0)  -->
<!DOCTYPE svg PUBLIC "-//W3C//DTD SVG 1.1//EN" "http://www.w3.org/Graphics/SVG/1.1/DTD/svg11.dtd">
<svg version="1.1" id="Capa_1" xmlns="http://www.w3.org/2000/svg" xmlns:xlink="http://www.w3.org/1999/xlink" width="14px"
	 viewBox="0 0 213.106 213.106" style="enable-background:new 0 0 213.106 213.106;"
	 xml:space="preserve">
<g>
	<g>
		<path d="M178.845,96.347c0-0.218,0-0.437-0.03-0.65c-0.3-2.13-0.599-4.263-0.914-6.396c-0.065-0.403-0.035-0.764,0.183-1.122
			c0.468-0.769,0.533-1.612,0.32-2.46c-0.162-0.65-0.376-1.295-0.645-1.912c-1.666-3.829-3.356-7.65-5.022-11.476
			c-0.111-0.251-0.203-0.536-0.192-0.807c0.04-1.275-0.361-2.372-1.29-3.23c-0.701-0.645-1.452-1.247-2.239-1.788
			c-0.498-0.337-1.077-0.571-1.65-0.764c-0.66-0.224-1.315-0.15-1.945,0.213c-0.482,0.279-1.025,0.467-1.544,0.681
			c-0.127,0.053-0.274,0.038-0.462,0.059c0.035-0.858,0.086-1.661,0.102-2.466c0.03-1.236,0.051-2.48,0.041-3.725
			c0-0.338-0.036-0.736-0.219-0.998c-0.817-1.175-1.701-2.312-2.864-3.196c-1.244-0.942-2.538-1.234-4.011-0.516
			c-2.723,1.315-5.465,2.585-8.196,3.87c-0.208,0.099-0.416,0.198-0.574,0.269c-0.599-0.749-1.111-1.444-1.69-2.095
			c-0.97-1.097-2.098-2.023-3.311-2.844c-0.488-0.327-0.965-0.665-1.458-0.995c-2.27-1.519-3.737-3.618-4.418-6.249
			c-0.863-3.349-1.909-6.645-3.031-9.917c-0.64-1.871-1.244-3.752-1.854-5.636c-0.218-0.686-0.152-1.384,0.046-2.059
			c0.249-0.884,0.695-1.117,1.563-0.858c0.376,0.114,0.736,0.262,1.112,0.371c0.518,0.154,1.041,0.332,1.569,0.421
			c0.767,0.13,1.533,0.15,2.143-0.47c0.849-0.868,1.971-1.241,3.047-1.678c0.696-0.282,1.468-0.381,2.209-0.551
			c0.315-0.074,0.635-0.109,0.96-0.167c0.102,0.244,0.183,0.447,0.274,0.64c0.421,0.863,1.081,1.181,2.025,0.998
			c0.706-0.135,1.306-0.478,1.854-0.914c0.244-0.198,0.487-0.307,0.817-0.333c1.163-0.084,1.442-0.437,1.341-1.597
			c0.646-0.183,0.99-0.686,1.173-1.279c0.184-0.577,0.33-1.176,0.412-1.772c0.127-0.947,0.192-1.904,0.273-2.854
			c0.046-0.554,0.011-1.077-0.4-1.526c-1.712-1.851-3.626-3.45-5.855-4.649c-2.798-1.5-5.601-2.988-8.414-4.461
			c-0.919-0.482-1.874-0.899-2.823-1.351c-0.122-0.724-0.087-1.374,0.478-1.988c0.355-0.384,0.559-0.93,0.73-1.435
			c0.178-0.498,0.274-1.039-0.035-1.653c-0.147,0.193-0.274,0.333-0.381,0.478c-0.259,0.376-0.487,0.777-0.762,1.14
			c-0.503,0.671-1.112,1.222-1.899,1.554c-0.375,0.158-0.756,0.218-1.238,0.083c0.741-0.482,1.508-0.848,1.67-1.894
			c-0.543,0.459-1.076,0.589-1.655,0.553c-0.492-0.028-0.594-0.167-0.522-0.666c0.04-0.292,0.056-0.584,0.081-0.863
			c-0.594-0.236-1.102-0.147-1.508,0.16c-0.482,0.358-0.935,0.391-1.458,0.15c-0.518-0.234-1.03-0.155-1.482,0.178
			c-0.279,0.203-0.523,0.452-0.792,0.68c-0.32,0.282-0.62,0.604-1.066,0.724c-0.355-0.368-0.265-0.8-0.209-1.19
			c0.152-1.026,0.066-2.044-0.056-3.057c-0.021-0.163-0.086-0.312-0.173-0.584c-0.065,1.092-0.106,2.049-0.203,3.001
			c-0.035,0.365-0.137,0.729-0.279,1.066c-0.157,0.368-0.462,0.396-0.695,0.073c-0.143-0.193-0.264-0.411-0.325-0.635
			c-0.192-0.802-0.365-1.607-0.533-2.415c-0.051-0.254-0.065-0.518-0.086-0.779c0-0.269-0.005-0.531-0.025-0.79
			c-0.478,1.33-0.65,2.673-0.376,4.182c-0.625-0.308-1.157-0.563-1.676-0.828c-0.522-0.267-1.046-0.53-1.559-0.81
			c-0.518-0.282-1.025-0.574-1.523-0.881c-0.482-0.295-0.955-0.617-1.564-1.023c0.046,0.625,0.046,1.082,0.122,1.523
			c0.152,0.868,0.513,1.658,0.976,2.407c0.7,1.15,1.619,2.097,2.676,2.922c0.559,0.437,0.503,1.125-0.117,1.468
			c-0.127,0.071,0.147-0.033,0,0c-0.584,0.119-1.025-0.01-1.482-0.411c-0.376-0.328-0.543-0.5-0.868-0.879
			c-0.447-0.51-0.701-0.911-1.737-1.439c-0.279-0.142-0.69-0.609-1.127-0.645c0.554,0.645,1.057,1.211,1.533,1.797
			c0.493,0.594,0.971,1.196,1.229,1.94c-0.071-0.036,0.142-0.094-0.147-0.354c-0.741-0.683-1.976-1.076-2.991-0.921
			c-1.462,0.229-2.43,1.186-3.369,2.283c0.8-0.279,1.516-0.597,2.263-0.774c1.143-0.264,2.254-0.15,3.234,0.574
			c0.695,0.508,0.701,0.701-0.016,1.178c-0.589,0.401-1.213,0.767-1.808,1.165c-0.767,0.511-1.457,1.102-1.98,1.872
			c-1.29,1.884-3.115,2.95-5.324,3.333c-1.236,0.219-2.333-0.124-3.047-1.279c-0.04-0.066-0.109-0.12-0.238-0.259
			c-0.005,0.769,0.284,1.259,0.794,1.643c0.536,0.401,1.155,0.604,1.805,0.708c0.546,0.089,1.102,0.13,1.752,0.208
			c-0.546,0.333-1.031,0.607-1.493,0.914c-0.488,0.323-0.973,0.655-1.44,1.013c-0.432,0.33-0.838,0.693-1.254,1.041
			c0.276-0.025,0.464-0.163,0.67-0.264c0.714-0.371,1.821-0.574,2.367-0.594c0.343-0.016,0.774,0.193,0.774,0.193
			c-0.556,0.962,0,0-0.15,0.279c-0.795,1.493-1.95,2.618-3.537,3.235c-1.201,0.47-2.381,0.386-3.524-0.239
			c-0.675-0.368-1.244-0.873-1.752-1.444c-0.137-0.157-0.277-0.312-0.417-0.465c0.62,1.224,1.47,2.232,2.661,2.93
			c0.719,0.414,1.493,0.602,2.32,0.518c0.338-0.036,0.666-0.13,1.107-0.219c-0.889,2.361-2.148,4.228-4.669,4.992
			c0.909-0.092,1.826-0.19,2.849-0.3c-0.884,0.805-2.448,2.59-2.74,3.742c0.264-0.218,1.003-1.056,1.81-1.652
			c0.467-0.348,0.815-0.546,1.415-0.698c0.393-0.097,0.764-0.076,0.779,0.325c0.02,0.498-0.109,0.998-0.229,1.475
			c-0.386,1.503-0.505,1.993-1.419,3.298c-0.754,0.914-0.416,0.447-1.482,1.173c-1.336,0.848-1.336,0.848-1.856,1.166
			c-0.457,0.287-0.843,0.51-1.086,1.216c-0.084,0.247-0.104,0.848-0.218,1.051c1.056-0.972,2.328-1.003,3.598-1.018
			c0.417-0.005,0.516,0.229,0.368,0.612c-0.259,0.704-0.076,0.234-0.551,0.878c-1.679,0.719-1.628,1.755-2.443,2.633
			c-0.104,0.114-0.203,0.234-0.302,0.348c0.244-0.053,0.406-0.183,0.582-0.297c0.48-0.297,0.942-0.635,1.453-0.873
			c0.65-0.302,0.952-0.051,0.883,0.66c-0.063,0.635-0.64,0.774-1.036,1.244c-0.518,0.612-1.262,1.216-1.783,1.831
			c-0.645,0.764-0.848,1.891-1.467,2.676c-0.135,0.172-0.213,0.386-0.317,0.579c0.345-0.193,0.563-0.464,0.817-0.704
			c0.734-0.68,1.379-1.487,2.227-2.005c0.939-0.579,1.445-0.226,1.267,0.617c-0.417,1.96-0.051,4.015-0.051,4.015
			s0.536-1.425,1.123-1.295c0.848,0.192,0.807,1.099,0.068,1.665c-0.536,0.412-1.249,0.505-1.742,0.962
			c-0.973,0.899-1.295,2.481-1.676,3.768c-0.109,0.365-0.165,0.739-0.249,1.109c0.041,0.016,0.084,0.036,0.125,0.051
			c0.119-0.17,0.193-0.482,0.322-0.65c0.77-0.998,1.14-2.333,1.94-3.306c0.239-0.292,0.764-0.698,1.358-0.224
			c0.432-0.218,1.381,1.683,1.841,2.234c-0.158,0.218-0.287,0.412-0.426,0.599c-0.45,0.602-0.754,1.272-0.896,2.011
			c-0.066,0.343-0.145,0.698-0.041,1.166c0.244-0.378,0.462-0.625,0.597-0.914c0.739-1.587,2.247-1.529,2.082-1.166
			c-0.251,0.551,2.011,2.57,2.011,2.57s-0.175-0.64-0.005-0.203c0.054,0.525-0.203,0.67-0.467,1.102
			c-0.371,0.591-0.754,1.17-1.13,1.757c-0.79,1.227-1.044,2.554-0.785,3.994c0.239,1.305,0.462,2.615,0.64,3.925
			c0.401,2.933,0.053,5.769-1.181,8.48c-1.117,2.455-2.239,4.905-3.306,7.381c-1.556,3.613-3.735,6.784-6.688,9.384
			c-1.602,1.409-3.275,2.729-4.931,4.083c-2.09,1.711-4.228,3.359-6.269,5.121c-2.574,2.216-4.39,4.945-5.461,8.211
			c-0.924,2.742-2,5.454-3.072,8.165c-0.437,1.107-1.046,2.144-1.603,3.21c-0.343,0.649-0.889,1.046-1.617,1.203
			c-0.531,0.117-1.056,0.259-1.587,0.371c-1.574,0.324-3.146,0.649-4.641,1.27c-1.846,0.771-3.339,1.939-4.296,3.732
			c-0.48,0.903-0.978,1.797-1.445,2.706c-0.521,1-0.995,2.031-1.523,3.026c-0.625,1.173-1.462,2.158-2.584,2.895
			c-1.11,0.727-2.207,1.473-3.324,2.193c-0.472,0.305-0.962,0.6-1.473,0.844c-1.086,0.522-2.219,0.741-3.42,0.472
			c-0.104-0.025-0.218-0.005-0.333-0.005c0.617,0.376,1.29,0.538,1.975,0.609c2.054,0.233,3.946-0.284,5.83-1.387
			c-0.312,0.939-0.759,1.62-1.315,2.229c-0.698,0.757-1.536,1.27-2.575,1.422c-1.623,0.233-3.052-0.295-4.372-1.163
			c-1.021-0.675-1.214-1.492-0.668-2.595c0.236-0.467,0.505-0.914,0.787-1.351c0.467-0.746,0.518-1.447-0.074-2.163
			c-0.396-0.478-0.604-1.036-0.708-1.655c-0.092-0.574-0.254-1.148-0.676-1.646c0,0.106-0.01,0.167,0,0.224
			c0.272,1.051,0.551,2.102,0.823,3.153c0.17,0.675,0.12,1.32-0.198,1.96c-0.282,0.563-0.516,1.152-0.734,1.742
			c-0.269,0.73-0.482,1.487-0.467,2.285c0.015,1.065,0.493,1.858,1.46,2.274c0.551,0.233,1.16,0.346,1.754,0.462
			c0.437,0.086,0.884,0.097,1.465,0.152c-0.244,0.213-0.368,0.351-0.526,0.452c-2.476,1.614-5.87,0.427-6.759-2.396
			c-0.233-0.741-0.36-1.523-0.541-2.285c-0.063-0.254-0.125-0.508-0.188-0.762c-0.051,0.015-0.104,0.025-0.15,0.04
			c-0.167,1.676-0.094,3.321,0.83,4.814c1.041,1.69,2.689,2.366,4.524,2.65c-0.863,0.376-1.757,0.701-2.595,1.138
			c-0.863,0.457-1.528,1.157-1.97,2.052c0.264-0.112,0.482-0.27,0.708-0.427c1.211-0.858,2.478-1.62,3.951-1.95
			c0.724-0.162,1.455-0.203,2.303,0.147c-0.333,0.076-0.536,0.137-0.749,0.167c-1.033,0.173-2.031,0.473-2.978,0.93
			c-0.833,0.401-1.577,0.924-2.143,1.671c-0.134,0.173-0.239,0.376-0.358,0.559c0.338-0.071,0.576-0.219,0.82-0.355
			c1.114-0.63,2.227-1.28,3.468-1.636c0.328-0.091,0.683-0.142,1.026-0.132c0.374,0,0.546,0.214,0.561,0.584
			c0.005,0.152-0.015,0.31-0.051,0.452c-0.322,1.381-1.01,2.549-2.112,3.438c-0.363,0.29-0.817,0.482-1.247,0.681
			c-0.421,0.193-0.853,0.112-1.264-0.081c-0.13-0.066-0.257-0.143-0.406-0.224c-0.005,0.817,0.401,1.417,1.117,1.681
			c0.505,0.193,1.026,0.183,1.546,0.102c0.186-0.03,0.373-0.056,0.627-0.091c-0.066,0.213-0.091,0.365-0.16,0.487
			c-0.333,0.609-0.66,1.219-1.031,1.812c-0.765,1.229-1.813,2.077-3.227,2.483c-1.338,0.386-2.668,0.792-3.974,1.27
			c-0.894,0.319-1.767,0.731-2.595,1.193c-0.437,0.243-0.81,0.66-1.112,1.071c-0.406,0.549-0.406,1.082-0.147,1.604
			c0.033-0.03,0.073-0.056,0.089-0.086c0.807-1.65,2.196-2.463,3.943-2.783c1.569-0.284,3.123-0.137,4.659,0.229
			c0.566,0.138,1.132,0.32,1.653,0.579c0.614,0.305,0.686,0.752,0.254,1.279c-0.285,0.346-0.63,0.666-0.988,0.945
			c-0.686,0.538-1.414,1.016-2.095,1.563c-0.64,0.519-1.28,1.046-1.835,1.65c-0.328,0.351-0.531,0.838-0.719,1.295
			c-0.145,0.355-0.076,0.751,0.193,1.188c0.297-1.473,1.265-2.347,2.346-3.088c0.914-0.619,1.896-1.137,2.859-1.695
			c0.155-0.092,0.337-0.143,0.645-0.279c-0.952,1.579-1.582,3.112-1.498,4.869c0.49-1.427,1.543-2.336,2.768-3.087
			c0.706-0.447,1.295-0.366,1.881,0.233c0.244,0.243,0.447,0.533,0.645,0.812c0.188,0.264,0.333,0.563,0.525,0.827
			c0.129,0.178,0.307,0.32,0.516,0.523c0.145-0.233,0.233-0.376,0.317-0.523c0.528-0.924,1.163-1.244,2.219-1.102
			c0.259,0.035,0.521,0.041,0.779,0.061c0.308,0.031,0.495-0.121,0.6-0.396c0.457-1.198,0.889-2.407,0.967-3.707
			c0.076-1.305-0.178-2.549-0.604-3.773c-0.109-0.31-0.218-0.619-0.269-0.939c-0.068-0.416,0.125-0.64,0.536-0.609
			c0.317,0.031,0.627,0.152,0.939,0.239c0.173,0.046,0.333,0.116,0.505,0.167c-0.287-0.995-0.594-1.93-0.812-2.874
			c-0.279-1.229-0.071-2.335,0.973-3.179c0.083-0.07,0.152-0.157,0.236-0.233c1.132-0.97,2.042-2.107,2.78-3.417
			c0.64-1.133,1.437-2.179,2.158-3.266c0.769-1.147,1.315-2.396,1.632-3.747c0.317-1.356,0.665-2.702,1.056-4.037
			c0.561-1.92,1.399-3.712,2.788-5.185c0.716-0.762,1.404-1.544,2.011-2.397c0.406-0.573,0.922-1.051,1.577-1.34
			c0.145-0.062,0.307-0.092,0.51-0.147c-0.152,1.701-0.163,3.326,0.025,4.951c0.323,2.874,1.166,5.565,2.798,7.982
			c1.018,1.523,2.016,3.057,2.993,4.601c0.452,0.716,0.853,1.462,1.244,2.219c0.312,0.604,0.447,1.26,0.437,1.95
			c-0.025,1.503-0.025,3.006,0,4.509c0.01,0.691-0.109,1.336-0.353,1.971c-1.062,2.737-2.29,5.408-3.646,8.013
			c-0.655,1.255-1.254,2.534-1.681,3.89c-0.414,1.315-0.409,2.575,0.114,3.885c0.907,2.265,1.722,4.556,2.544,6.846
			c0.919,2.569,1.513,5.22,2.247,7.84c0.785,2.804,1.684,5.576,2.506,8.369c0.155,0.538,0.223,1.106,0.239,1.67
			c0.035,1.234,0.015,2.483,0.005,3.723c0,0.264-0.046,0.518-0.063,0.782c-0.025,0.406-0.097,0.822-0.046,1.229
			c0.109,0.792,0.312,1.579,0.437,2.366c0.063,0.381,0.213,0.544,0.609,0.625c1.896,0.401,3.806,0.716,5.735,0.858
			c1.386,0.101,2.786,0.157,4.169-0.102c0.655-0.122,1.31-0.274,1.846-0.731c-0.089-0.279-0.155-0.503-0.234-0.727
			c-0.421-1.183-0.868-2.371-1.27-3.569c-0.17-0.514-0.417-0.939-0.889-1.225c-0.16-0.096-0.317-0.238-0.426-0.396
			c-0.607-0.874-1.394-1.544-2.313-2.067c-0.317-0.183-0.615-0.416-0.889-0.66c-0.203-0.192-0.401-0.416-0.516-0.66
			c-0.381-0.832-0.774-1.655-1.066-2.513c-1.424-4.18-2.658-8.42-3.78-12.69c-0.14-0.533-0.193-1.122-0.155-1.676
			c0.119-1.645,0.269-3.29,0.477-4.931c0.173-1.376,0.467-2.747,0.65-4.123c0.155-1.204,0.478-2.331,1.023-3.418
			c2.28-4.504,4.509-9.028,6.444-13.689c0.848-2.042,1.871-4.022,2.476-6.206c0.914,0.112,1.797,0.295,2.656,0.625
			c1.011,0.386,1.617,1.062,1.706,2.168c0.021,0.26,0.084,0.519,0.094,0.772c0.114,2.193-0.276,4.285-1.221,6.276
			c-1.146,2.396-2.445,4.712-3.88,6.946c-0.317,0.493-0.65,0.985-0.878,1.523c-0.769,1.818-0.427,2.6,0.515,3.656
			c0.274,0.305,0.571,0.599,0.894,0.853c0.83,0.671,1.678,1.32,2.531,1.95c4.619,3.443,8.93,7.236,13.053,11.253
			c1.638,1.595,3.052,3.342,3.94,5.464c0.218,0.523,0.604,0.843,1.127,1.016c0.208,0.062,0.411,0.143,0.62,0.198
			c0.604,0.162,0.878,0.579,0.959,1.173c0.046,0.366,0.173,0.716,0.26,1.066c0.091,0.355,0.279,0.722,0.259,1.066
			c-0.106,1.569,0.391,3.057,0.492,4.591c3.412,1.396,6.805,1.792,10.318,0.502c-0.365-1.508-0.762-2.93-1.341-4.296
			c-0.248-0.584-0.548-1.127-1.152-1.446c-0.244-0.127-0.441-0.346-0.655-0.533c-1.645-1.458-3.047-3.098-4.067-5.053
			c-0.432-0.828-0.898-1.646-1.376-2.448c-0.274-0.462-0.554-0.949-0.924-1.335c-1.031-1.062-2.067-2.118-3.179-3.098
			c-2.796-2.463-5.604-4.9-8.237-7.541c-0.551-0.549-1.102-1.117-1.584-1.731c-0.797-1.001-1.005-2.148-0.625-3.387
			c0.368-1.204,0.729-2.407,1.092-3.616c0.381-1.254,1.036-2.33,1.975-3.255c1.415-1.386,2.725-2.879,3.864-4.504
			c0.739-1.057,1.43-2.143,1.8-3.382c0.51-1.747,1.251-3.382,2.156-4.956c0.437-0.757,0.716-1.574,0.93-2.417
			c0.391-1.564,0.817-3.113,1.274-4.651c0.249-0.838,0.655-1.604,1.265-2.265c0.31-0.33,0.451-0.757,0.432-1.199
			c-0.031-0.67-0.062-1.351-0.203-2c-0.503-2.336-1.433-4.515-2.494-6.643c-0.771-1.533-1.117-3.148-1.157-4.844
			c-0.041-1.707,0.508-3.098,1.889-4.23c1.94-1.579,3.783-3.275,5.632-4.972c3.179-2.919,6.149-6.032,8.647-9.582
			c2.498-3.547,4.631-7.312,6.637-11.153c2.017-3.859,4.017-7.721,6.022-11.581c0.102-0.188,0.214-0.368,0.305-0.531
			c0.736,0.094,1.417,0.213,2.107,0.267c0.686,0.056,1.255-0.147,1.737-0.698c1.035-1.175,2.127-2.303,3.193-3.453
			c0.127-0.129,0.265-0.249,0.462-0.432c0.021,0.297,0.025,0.49,0.046,0.678c0.214,1.833,0.417,3.671,0.646,5.504
			c0.051,0.366,0.157,0.729,0.305,1.066c0.391,0.906,1.213,1.057,1.909,0.366c0.954-0.952,1.914-1.904,2.858-2.867
			c0.279-0.279,0.539-0.51,0.985-0.525c0.487-0.015,0.925-0.269,1.249-0.64c0.27-0.305,0.533-0.64,0.736-0.993
			c0.442-0.774,0.843-1.569,1.265-2.354c0.401-0.757,0.889-1.447,1.513-2.034c0.604-0.561,1.163-1.181,1.768-1.747
			c0.533-0.511,0.771-1.135,0.868-1.846c0.173-1.285,0.016-2.519-0.487-3.71c-0.111-0.274-0.203-0.556-0.335-0.919
			c0.579-0.239,1.106-0.495,1.655-0.67c0.645-0.203,1.209-0.023,1.604,0.556c0.244,0.358,0.487,0.716,0.706,1.097
			c1.127,1.94,2.117,3.951,2.92,6.048c0.274,0.727,0.478,1.493,0.6,2.263c0.183,1.092,0.259,2.204,0.386,3.306
			c0.122,1.021,0.269,2.019,1.056,2.808c0.274,0.282,0.442,0.698,0.584,1.082c0.208,0.556,0.122,1.046-0.411,1.435
			c-0.422,0.307-0.787,0.688-1.163,1.051c-0.314,0.317-0.477,0.701-0.482,1.171c-0.01,0.566-0.061,1.132-0.137,1.688
			c-0.097,0.645-0.157,1.31-0.386,1.914c-0.198,0.521-0.092,0.858,0.243,1.222c0.889,0.972,1.909,1.785,3.098,2.351
			c0.437,0.208,0.894,0.317,1.392,0.308c0.848-0.021,1.696-0.005,2.544-0.01c0.168,0,0.33-0.031,0.549-0.059
			c0-0.254,0-0.467,0-0.686C178.845,99.183,178.845,97.761,178.845,96.347z M155.375,81.123c0.213-0.381,1.569-1.539,2.295-1.95
			C157.64,80.966,156.853,81.61,155.375,81.123z M159.052,68.128c-0.508,0.16-0.996,0.317-1.488,0.467
			c-1.722,0.525-3.438,1.087-5.175,1.551c-0.919,0.244-1.879,0.325-2.823,0.462c-0.284,0.04-0.589,0.005-0.985,0.005
			c0.157-0.203,0.233-0.328,0.33-0.432c1.935-2.209,3.859-4.426,5.805-6.624c0.396-0.455,0.853-0.874,1.32-1.26
			c0.568-0.472,1.203-0.427,1.65,0.168c0.284,0.368,0.543,0.814,0.64,1.262c0.289,1.358,0.498,2.737,0.731,4.108
			C159.062,67.91,159.052,67.999,159.052,68.128z"/>
	</g>
</g>
<g>
</g>
<g>
</g>
<g>
</g>
<g>
</g>
<g>
</g>
<g>
</g>
<g>
</g>
<g>
</g>
<g>
</g>
<g>
</g>
<g>
</g>
<g>
</g>
<g>
</g>
<g>
</g>
<g>
</g>
</svg>
