<?xml version="1.0" encoding="iso-8859-1"?>
<!-- Generator: Adobe Illustrator 19.0.0, SVG Export Plug-In . SVG Version: 6.00 Build 0)  -->
<svg version="1.1" id="Capa_1" xmlns="http://www.w3.org/2000/svg" xmlns:xlink="http://www.w3.org/1999/xlink" width="14px"
	 viewBox="0 0 512 512" style="enable-background:new 0 0 512 512;" xml:space="preserve">
<g>
	<g>
		<path d="M385.782,219.44h-4.839v-94.498C380.943,56.049,324.894,0,255.999,0S131.057,56.049,131.057,124.942v94.498h-4.839
			c-19.169,0-34.764,15.596-34.764,34.764v188.981c0,37.944,30.87,68.815,68.814,68.815H351.73
			c37.944,0,68.815-30.871,68.815-68.815V254.204C420.546,235.036,404.951,219.44,385.782,219.44z M161.011,124.942h0.001
			c0-52.377,42.611-94.987,94.987-94.987s94.988,42.611,94.988,94.987v94.498h-14.684v-95.038c0-44.28-36.024-80.304-80.304-80.304
			s-80.304,36.024-80.304,80.304v95.038h-14.684V124.942z M306.348,124.402v95.038H205.651v-95.038
			c0-27.763,22.586-50.349,50.349-50.349S306.348,96.64,306.348,124.402z M390.59,443.185c0,21.427-17.432,38.86-38.86,38.86
			H160.269c-21.427,0-38.859-17.432-38.859-38.86V254.204c0-2.652,2.158-4.809,4.809-4.809h259.563c2.652,0,4.809,2.158,4.809,4.809
			V443.185z"/>
	</g>
</g>
<g>
	<g>
		<path d="M255.999,302.113c-23.739,0-43.052,19.313-43.052,43.052c0,18.473,11.698,34.263,28.074,40.36v24.883
			c0,8.272,6.706,14.978,14.978,14.978c8.272,0,14.978-6.706,14.978-14.978v-24.883c16.377-6.097,28.074-21.886,28.074-40.36
			C299.052,321.426,279.739,302.113,255.999,302.113z M255.999,358.261c-7.221,0-13.096-5.875-13.096-13.096
			c0.001-7.221,5.875-13.096,13.096-13.096c7.221,0,13.096,5.875,13.096,13.096S263.221,358.261,255.999,358.261z"/>
	</g>
</g>
<g>
</g>
<g>
</g>
<g>
</g>
<g>
</g>
<g>
</g>
<g>
</g>
<g>
</g>
<g>
</g>
<g>
</g>
<g>
</g>
<g>
</g>
<g>
</g>
<g>
</g>
<g>
</g>
<g>
</g>
</svg>
