<?xml version="1.0" encoding="iso-8859-1"?>
<!-- Generator: Adobe Illustrator 17.1.0, SVG Export Plug-In . SVG Version: 6.00 Build 0)  -->
<!DOCTYPE svg PUBLIC "-//W3C//DTD SVG 1.1//EN" "http://www.w3.org/Graphics/SVG/1.1/DTD/svg11.dtd">
<svg version="1.1" id="Capa_1" xmlns="http://www.w3.org/2000/svg" xmlns:xlink="http://www.w3.org/1999/xlink" width="14px"
	 viewBox="0 0 258.103 258.103" style="enable-background:new 0 0 258.103 258.103;" xml:space="preserve">
<g>
	<path d="M248.904,71.976c-0.974,0-1.972,0.14-2.969,0.414l-11.278,3.106l-11.713-28.531c-3.317-8.082-13.125-14.657-21.862-14.657
		H91.474c-8.736,0-18.545,6.575-21.863,14.657L57.915,75.457L46.777,72.39c-0.997-0.274-1.995-0.414-2.969-0.414
		c-5.33,0-9.198,4.072-9.198,9.683v6.649c0,0.272,0.022,0.539,0.041,0.808c-4.643,2.927-9.001,6.375-12.977,10.351
		C7.698,113.442,0,132.026,0,151.793c0,19.768,7.698,38.351,21.675,52.326c13.978,13.977,32.561,21.676,52.327,21.676
		c19.766,0,38.35-7.698,52.327-21.676c8.147-8.146,14.142-17.865,17.742-28.465h68.937v14.154c0,6.549,5.328,11.877,11.877,11.877
		h15.511c6.549,0,11.877-5.328,11.877-11.877v-56.68c0-8.118-2.507-20.831-5.59-28.34l-1.891-4.604h1.434
		c6.549,0,11.877-5.328,11.877-11.877v-6.649C258.103,76.048,254.234,71.976,248.904,71.976z M84.147,50.58
		c1.984-4.835,7.885-8.79,13.11-8.79h98.041c5.226,0,11.126,3.955,13.11,8.79l17.717,43.154c1.984,4.835-0.668,8.79-5.894,8.79
		h-91.024c-0.931-1.04-1.885-2.064-2.879-3.059c-13.979-13.978-32.562-21.675-52.327-21.675c-0.347,0-0.689,0.02-1.035,0.025
		L84.147,50.58z M74.002,203.646c-13.85,0-26.871-5.395-36.665-15.189c-9.794-9.793-15.187-22.813-15.187-36.664
		s5.394-26.871,15.187-36.665c9.794-9.793,22.815-15.187,36.665-15.187s26.871,5.394,36.665,15.187
		c9.793,9.794,15.187,22.814,15.187,36.665s-5.393,26.871-15.187,36.664C100.872,198.251,87.852,203.646,74.002,203.646z
		 M229.413,148.318c0,2.613-2.138,4.751-4.751,4.751h-33.653c-2.613,0-4.751-2.138-4.751-4.751v-16.152
		c0-2.613,2.138-4.751,4.751-4.751h33.653c2.613,0,4.751,2.138,4.751,4.751V148.318z"/>
	<path d="M108.154,121.659c-4.234-3.108-10.187-2.198-13.297,2.037L67.7,160.676l-16.626-12.093
		c-4.247-3.091-10.197-2.152-13.287,2.098c-3.09,4.248-2.151,10.197,2.098,13.287l22.229,16.167
		c2.134,1.554,4.616,2.303,7.078,2.303c3.714,0,7.383-1.704,9.739-4.914l31.261-42.567
		C113.301,130.723,112.389,124.769,108.154,121.659z"/>
</g>
<g>
</g>
<g>
</g>
<g>
</g>
<g>
</g>
<g>
</g>
<g>
</g>
<g>
</g>
<g>
</g>
<g>
</g>
<g>
</g>
<g>
</g>
<g>
</g>
<g>
</g>
<g>
</g>
<g>
</g>
</svg>
