<svg viewBox="0 -58 416.16043 416" width="14px" xmlns="http://www.w3.org/2000/svg"><path d="m231.839844 204.546875h-61.4375c-3.773438 0-6.828125 3.050781-6.828125 6.824219 0 3.773437 3.054687 6.828125 6.828125 6.828125h61.4375c3.773437 0 6.828125-3.054688 6.828125-6.828125 0-3.773438-3.054688-6.824219-6.828125-6.824219zm0 0"/><path d="m115.886719 180.152344c-1.273438-1.824219-3.367188-2.914063-5.59375-2.914063h-47.753907c-2.542968 0-4.878906 1.414063-6.050781 3.671875-1.179687 2.253906-1 4.980469.460938 7.070313l23.871093 34.132812c1.273438 1.824219 3.367188 2.914063 5.59375 2.914063h47.753907c2.542969 0 4.878906-1.414063 6.050781-3.675782 1.179688-2.25 1-4.980468-.460938-7.066406zm-25.917969 31.21875-14.324219-20.480469h31.09375l14.324219 20.480469zm0 0"/><path d="m143.101562 95.320312c1.492188 0 3-.488281 4.257813-1.496093l34.132813-27.304688c2.941406-2.359375 3.421874-6.652343 1.066406-9.601562-2.359375-2.941407-6.644532-3.425781-9.597656-1.066407l-34.132813 27.308594c-2.941406 2.359375-3.421875 6.652344-1.066406 9.597656 1.351562 1.6875 3.332031 2.5625 5.339843 2.5625zm0 0"/><path d="m190.886719 95.320312c1.460937 0 2.941406-.46875 4.1875-1.441406l61.441406-47.785156c2.972656-2.3125 3.511719-6.601562 1.191406-9.582031-2.3125-2.957031-6.59375-3.519531-9.578125-1.191407l-61.441406 47.785157c-2.972656 2.3125-3.515625 6.601562-1.191406 9.582031 1.34375 1.726562 3.355468 2.632812 5.390625 2.632812zm0 0"/><path d="m361.546875 135.265625v-5.8125h27.308594c3.773437 0 6.824219-3.050781 6.824219-6.824219v-20.214844c0-11.441406-9.304688-20.746093-20.746094-20.746093h-29.140625c-9.644531-46.519531-50.929688-81.5859378-100.265625-81.5859378h-95.375c-49.335938 0-90.621094 35.0664068-100.265625 81.5859378h-27.140625c-12.539063 0-22.746094 10.207031-22.746094 22.746093v18.214844c0 3.773438 3.054688 6.824219 6.828125 6.824219h27.039063v21.347656c-11.765626 3.03125-20.480469 13.742188-20.480469 26.441407v81.917968c0 15.058594 12.246093 27.308594 27.308593 27.308594h13.652344c15.058594 0 27.304688-12.25 27.304688-27.308594h176.425781c15.007813 24.515625 41.960937 40.960938 72.75 40.960938 47.050781 0 85.332031-38.28125 85.332031-85.332032 0-36.21875-22.714844-67.15625-54.613281-79.523437zm-211.394531-121.53125h95.375c48.816406 0 88.539062 39.625 88.730468 88.394531l-.007812 6.84375h-272.84375v-6.492187c0-48.933594 39.8125-88.746094 88.746094-88.746094zm-75.324219 231.769531h-20.480469c-3.773437 0-6.828125 3.054688-6.828125 6.828125 0 3.773438 3.054688 6.828125 6.828125 6.828125h13.652344c0 7.523438-6.125 13.652344-13.652344 13.652344h-13.652344c-7.527343 0-13.65625-6.128906-13.65625-13.652344v-81.921875c0-7.527343 6.128907-13.652343 13.65625-13.652343 3.773438 0 6.824219-3.054688 6.824219-6.828126v-34.132812c0-3.773438-3.050781-6.824219-6.824219-6.824219h-27.042968v-11.386719c0-5.015624 4.082031-9.09375 9.09375-9.09375h24.945312l-.171875 20.417969c-.015625 1.820313.699219 3.574219 1.980469 4.867188 1.277344 1.292969 3.023438 2.023437 4.84375 2.023437h286.753906c3.773438 0 6.828125-3.054687 6.828125-6.828125v-13.320312c0-.105469-.015625-.203125-.015625-.308594l.007813-6.851563h27.015625c3.914062 0 7.089844 3.179688 7.089844 7.089844v13.390625h-27.304688c-3.773438 0-6.828125 3.050781-6.828125 6.824219v8.546875c-5.515625-1.125-11.222656-1.71875-17.066406-1.71875-47.050781 0-85.332031 38.28125-85.332031 85.332031 0 10.839844 2.109374 21.171875 5.8125 30.71875zm256 40.960938c-39.527344 0-71.679687-32.152344-71.679687-71.679688s32.152343-71.679687 71.679687-71.679687c39.523437 0 71.679687 32.152343 71.679687 71.679687s-32.15625 71.679688-71.679687 71.679688zm0 0"/><path d="m363.234375 179.574219-42.242187 48.273437-15.425782-20.566406c-2.257812-3.027344-6.546875-3.628906-9.554687-1.367188-3.019531 2.257813-3.632813 6.539063-1.367188 9.550782l20.480469 27.308594c1.234375 1.648437 3.148438 2.652343 5.199219 2.726562.089843.007812.175781.007812.261719.007812 1.964843 0 3.839843-.847656 5.140624-2.332031l47.785157-54.613281c2.480469-2.835938 2.195312-7.148438-.644531-9.636719-2.832032-2.484375-7.148438-2.207031-9.632813.648438zm0 0"/></svg>