<?xml version="1.0" encoding="iso-8859-1"?>
<!-- Generator: Adobe Illustrator 19.0.0, SVG Export Plug-In . SVG Version: 6.00 Build 0)  -->
<svg version="1.1" id="Capa_1" xmlns="http://www.w3.org/2000/svg" xmlns:xlink="http://www.w3.org/1999/xlink" width="14px"
	 viewBox="0 0 496 496" style="enable-background:new 0 0 496 496;" xml:space="preserve">
<g>
	<g>
		<path d="M488.112,219.96L486.76,212h-56.216l1.792,10.616c3.744,22.472,6.12,45.776,7.08,69.384H408v-80c0-13.232-10.768-24-24-24
			h-16c-4.416,0-8-3.592-8-8v-16c0-13.232-10.768-24-24-24h-64v-24h96V68H128v48h96v24h-54.112c-9.152,0-17.376,5.08-21.472,13.264
			l-7.16,14.312c-1.36,2.728-4.096,4.424-7.144,4.424H96c-13.232,0-24,10.768-24,24v56H48v-64H0v176h48v-64h24v64
			c0,13.232,10.768,24,24,24h41.376c2.104,0,4.168,0.856,5.656,2.344l30.624,30.624c4.528,4.536,10.56,7.032,16.968,7.032H384
			c13.232,0,24-10.768,24-24v-64h31.408c-0.808,18.664-2.504,37.168-5.08,55.112L430.776,420h56.168l3.232-22.624
			c3.864-27.08,5.824-54.68,5.824-82.032C496,283.48,493.344,251.392,488.112,219.96z M72,284H32v64H16V204h16v64h40V284z M144,100
			V84h208v16h-96v40h-16v-40H144z M120,372H96c-4.416,0-8-3.592-8-8V196c0-4.408,3.584-8,8-8h24v40h32c4.416,0,8,3.592,8,8v80
			c0,4.408-3.584,8-8,8h-32V372z M200,412h-9.376c-2.104,0-4.16-0.856-5.656-2.344l-30.624-30.624
			c-4.528-4.536-10.56-7.032-16.968-7.032H136v-32h16c13.232,0,24-10.768,24-24v-80c0-13.232-10.768-24-24-24h-16v-24.128
			c8.376-0.648,15.768-5.52,19.576-13.136l7.16-14.312c1.368-2.728,4.104-4.424,7.152-4.424H200V412z M264,412h-16v-32h-16v32h-16
			v-88h16v40h16v-40h16V412z M296,412h-16v-88h16V412z M328,412h-16v-88h16V412z M392,404c0,4.408-3.584,8-8,8h-8v-56h-16v56h-16
			v-88h16v16h16v-16h16V404z M392,308H216v-16h176V308z M280,276v-32h48v32H280z M392,276h-48v-48h-80v48h-48v-72h112v-16H216v-32
			h120c4.416,0,8,3.592,8,8v16c0,13.232,10.768,24,24,24h16c4.416,0,8,3.592,8,8V276z M474.328,395.112L473.064,404h-23.832
			l0.944-6.624c3.024-21.168,4.88-43.088,5.528-65.144l0.232-8.232H408v-16h47.896l-0.216-8.216
			c-0.648-24.352-2.768-48.456-6.296-71.784H473.2c4.512,28.824,6.8,58.176,6.8,87.344C480,341.944,478.096,368.784,474.328,395.112
			z"/>
	</g>
</g>
<g>
	<g>
		<rect x="120" y="268" width="16" height="16"/>
	</g>
</g>
<g>
	<g>
		<rect x="232" y="244" width="16" height="16"/>
	</g>
</g>
<g>
	<g>
		<rect x="360" y="244" width="16" height="16"/>
	</g>
</g>
<g>
</g>
<g>
</g>
<g>
</g>
<g>
</g>
<g>
</g>
<g>
</g>
<g>
</g>
<g>
</g>
<g>
</g>
<g>
</g>
<g>
</g>
<g>
</g>
<g>
</g>
<g>
</g>
<g>
</g>
</svg>
