<?xml version="1.0" encoding="iso-8859-1"?>
<!-- Generator: Adobe Illustrator 19.0.0, SVG Export Plug-In . SVG Version: 6.00 Build 0)  -->
<svg version="1.1" id="Capa_1" xmlns="http://www.w3.org/2000/svg" xmlns:xlink="http://www.w3.org/1999/xlink" width="14px"
	 viewBox="0 0 512 512" style="enable-background:new 0 0 512 512;" xml:space="preserve">
<g>
	<g>
		<path d="M440,387V197H216V85c0-46.869-38.131-85-85-85H46v80h85c2.757,0,5,2.243,5,5v272.795c-16.652,16.342-27,39.086-27,64.205
			c0,49.626,40.374,90,90,90c33.244,0,62.334-18.12,77.918-45H466v-80H440z M293,227h40v60h-40V227z M131,50H76V30h55
			c30.327,0,55,24.673,55,55v247.942c-6.953,1.01-13.653,2.813-20,5.323V85C166,65.701,150.299,50,131,50z M199,482
			c-33.084,0-60-26.916-60-60c0-20.85,10.696-39.243,26.884-50H166v-0.075c9.475-6.265,20.816-9.925,33-9.925
			c33.084,0,60,26.916,60,60S232.084,482,199,482z M216,333.617V227h47v90h100v-90h47v160H281.915
			C270.37,359.751,245.767,339.332,216,333.617z M436,437H287.743c0.822-4.88,1.257-9.89,1.257-15c0-1.678-0.05-3.344-0.141-5H436
			V437z"/>
	</g>
</g>
<g>
	<g>
		<path d="M199,382c-22.056,0-40,17.944-40,40c0,22.056,17.944,40,40,40c22.056,0,40-17.944,40-40C239,399.944,221.056,382,199,382z
			 M199,432c-5.514,0-10-4.486-10-10c0-5.514,4.486-10,10-10c5.514,0,10,4.486,10,10C209,427.514,204.514,432,199,432z"/>
	</g>
</g>
<g>
</g>
<g>
</g>
<g>
</g>
<g>
</g>
<g>
</g>
<g>
</g>
<g>
</g>
<g>
</g>
<g>
</g>
<g>
</g>
<g>
</g>
<g>
</g>
<g>
</g>
<g>
</g>
<g>
</g>
</svg>
