<svg width="14px" viewBox="-1 0 512 512.00044" xmlns="http://www.w3.org/2000/svg"><path d="m467.765625 120.800781c0-72.214843-88.511719-107.625-138.359375-55.503906-3.078125 3.21875-2.964844 8.324219.253906 11.402344s8.320313 2.964843 11.402344-.253907c39.882812-41.703124 110.578125-13.289062 110.578125 44.355469 0 35.394531-28.792969 64.1875-64.1875 64.1875-44.242187 0-75.445313-44.054687-60.429687-85.875 1.503906-4.195312-.675782-8.8125-4.867188-10.316406-4.191406-1.5-8.808594.675781-10.3125 4.867187-18.78125 52.324219 20.238281 107.449219 75.609375 107.449219 44.285156 0 80.3125-36.027343 80.3125-80.3125zm0 0"/><path d="m499.492188 247.097656h-60.222657c6.121094-10.804687 8.003907-15.605468 15.140625-20.230468 35.242188-22.847657 56.277344-61.53125 56.277344-103.46875 0-108.398438-131.945312-165.300782-210.253906-87.0625-55.59375 55.570312-45.882813 147.804687 20.085937 190.542968 7.097657 4.59375 8.996094 9.410156 15.117188 20.21875h-220.65625c-4.171875 0-7.558594 3.386719-7.558594 7.558594s3.386719 7.558594 7.558594 7.558594h229.214843l26.980469 47.664062c7.167969 12.660156 25.382813 12.671875 32.554688 0l26.980469-47.664062h64.164062v234.667968h-479.757812v-234.667968h69.625c4.183593 0 7.5625-3.386719 7.5625-7.558594s-3.378907-7.558594-7.5625-7.558594h-74.238282c-5.796875 0-10.503906 4.707032-10.503906 10.5v243.910156c0 5.785157 4.707031 10.492188 10.503906 10.492188h488.988282c5.792968 0 10.5-4.707031 10.5-10.492188v-243.910156c0-5.792968-4.707032-10.5-10.5-10.5zm-108.921876 55.332032c-1.371093 2.429687-4.855468 2.4375-6.230468 0-42.554688-75.160157-16.546875-29.230469-41.546875-73.386719-3.363281-5.933594-8.222657-11.074219-14.046875-14.855469-31.46875-20.386719-49.933594-54.929688-49.398438-92.382812 1.359375-94.066407 116.148438-142.324219 184.019532-75.390626 49.277343 48.609376 40.792968 130.179688-17.183594 167.765626-11.898438 7.710937-10.628906 8.792968-55.613282 88.25zm0 0"/><path d="m32.757812 379.554688c0 13.332031 10.855469 24.1875 24.1875 24.1875h51.402344c13.335938 0 24.191406-10.855469 24.191406-24.1875 0-13.347657-10.855468-24.191407-24.191406-24.191407h-51.402344c-13.332031 0-24.1875 10.84375-24.1875 24.191407zm84.660157 0c0 4.996093-4.070313 9.070312-9.070313 9.070312h-51.402344c-5 0-9.070312-4.074219-9.070312-9.070312 0-5.011719 4.070312-9.074219 9.070312-9.074219h51.402344c5 0 9.070313 4.0625 9.070313 9.074219zm0 0"/><path d="m225.789062 388.261719c-4.007812 1.171875-6.308593 5.367187-5.136718 9.375 3.660156 12.507812 26.785156 1.207031 26.785156-18.085938 0-13.339843-10.851562-24.191406-24.1875-24.191406h-51.402344c-13.339844 0-24.191406 10.851563-24.191406 24.191406 0 13.339844 10.851562 24.1875 24.191406 24.1875h25.890625c4.171875 0 7.558594-3.382812 7.558594-7.558593 0-4.171876-3.386719-7.558594-7.558594-7.558594h-25.890625c-5.003906 0-9.074218-4.070313-9.074218-9.070313s4.070312-9.070312 9.074218-9.070312h51.402344c10.425781 0 12.550781 14.851562 2.539062 17.78125zm0 0"/><path d="m338.148438 403.742188c13.332031 0 24.1875-10.855469 24.1875-24.1875 0-13.347657-10.855469-24.191407-24.1875-24.191407h-51.402344c-13.335938 0-24.191406 10.84375-24.191406 24.191407 0 13.332031 10.855468 24.1875 24.191406 24.1875zm-60.472657-24.1875c0-5.011719 4.070313-9.074219 9.070313-9.074219h51.402344c5 0 9.070312 4.0625 9.070312 9.074219 0 4.996093-4.070312 9.070312-9.070312 9.070312h-51.402344c-5 0-9.070313-4.074219-9.070313-9.070312zm0 0"/><path d="m453.046875 403.742188c13.335937 0 24.191406-10.855469 24.191406-24.1875 0-13.347657-10.855469-24.191407-24.191406-24.191407h-51.402344c-13.332031 0-24.1875 10.84375-24.1875 24.191407 0 13.332031 10.855469 24.1875 24.1875 24.1875zm-60.472656-24.1875c0-5.011719 4.070312-9.074219 9.070312-9.074219h51.402344c5 0 9.070313 4.0625 9.070313 9.074219 0 4.996093-4.070313 9.070312-9.070313 9.070312h-51.402344c-5 0-9.070312-4.074219-9.070312-9.070312zm0 0"/></svg>