<svg viewBox="0 0 480 480" width="14px" xmlns="http://www.w3.org/2000/svg"><path d="m472.960938 439.039062-70.320313-70.320312c8.765625-14.734375 13.382813-31.570312 13.359375-48.71875 0-53.019531-42.980469-96-96-96s-96 42.980469-96 96 42.980469 96 96 96c17.148438.023438 33.984375-4.59375 48.71875-13.359375l70.320312 70.320313c9.371094 9.359374 24.550782 9.359374 33.921876 0 9.359374-9.371094 9.359374-24.550782 0-33.921876zm-232.960938-119.039062c0-44.183594 35.816406-80 80-80s80 35.816406 80 80-35.816406 80-80 80-80-35.816406-80-80zm221.679688 141.679688c-1.5 1.515624-3.546876 2.367187-5.679688 2.367187s-4.179688-.851563-5.679688-2.367187l-68.398437-68.398438c4.097656-3.460938 7.898437-7.261719 11.359375-11.359375l68.398438 68.398437c1.515624 1.5 2.367187 3.546876 2.367187 5.679688s-.851563 4.179688-2.367187 5.679688zm0 0"/><path d="m326.160156 266.878906c-1.519531-1.832031-3.777344-2.894531-6.160156-2.894531s-4.640625 1.0625-6.160156 2.894531l-40 48c-1.988282 2.386719-2.414063 5.710938-1.09375 8.519532 1.320312 2.8125 4.148437 4.605468 7.253906 4.601562h16v24c0 4.417969 3.582031 8 8 8s8-3.582031 8-8v-32c0-4.417969-3.582031-8-8-8h-6.960938l22.960938-27.519531 22.960938 27.519531h-6.960938c-4.417969 0-8 3.582031-8 8v32c0 4.417969 3.582031 8 8 8s8-3.582031 8-8v-24h16c3.105469.003906 5.933594-1.789062 7.253906-4.601562 1.320313-2.808594.894532-6.132813-1.09375-8.519532zm0 0"/><path d="m376 432c-4.417969 0-8 3.582031-8 8 0 13.253906-10.746094 24-24 24h-304c-13.253906 0-24-10.746094-24-24v-400c0-13.253906 10.746094-24 24-24h304c13.253906 0 24 10.746094 24 24v172.078125c0 4.421875 3.582031 8 8 8s8-3.578125 8-8v-172.078125c0-22.089844-17.910156-40-40-40h-304c-22.089844 0-40 17.910156-40 40v400c0 22.089844 17.910156 40 40 40h304c22.089844 0 40-17.910156 40-40 0-4.417969-3.582031-8-8-8zm0 0"/><path d="m206.398438 192h57.601562c4.417969 0 8-3.582031 8-8s-3.582031-8-8-8h-51.359375c2.222656-7.808594 3.351563-15.882812 3.359375-24 0-4.417969-3.582031-8-8-8h-72v-72c0-4.417969-3.582031-8-8-8-43.277344.007812-80.125 31.480469-86.898438 74.226562-6.773437 42.742188 18.535157 84.070313 59.691407 97.457032 41.15625 13.386718 85.933593-5.136719 105.605469-43.683594zm-78.398438 32c-38.09375-.15625-69.472656-29.957031-71.59375-67.992188-2.121094-38.035156 25.753906-71.140624 63.59375-75.527343v71.519531c0 4.417969 3.582031 8 8 8h71.519531c-.582031 5.453125-1.789062 10.824219-3.597656 16h-27.921875c-4.417969 0-8 3.582031-8 8s3.582031 8 8 8h19.839844c-13.355469 19.988281-35.800782 31.992188-59.839844 32zm0 0"/><path d="m264 72h-30.320312c-16.222657-24.925781-43.9375-39.972656-73.679688-40-4.417969 0-8 3.582031-8 8v80c0 4.417969 3.582031 8 8 8h80c4.417969 0 8-3.582031 8-8-.003906-10.945312-2.039062-21.796875-6-32h22c4.417969 0 8-3.582031 8-8s-3.582031-8-8-8zm-32.480469 40h-63.519531v-63.519531c17.574219 1.972656 33.804688 10.347656 45.601562 23.519531h-13.601562c-4.417969 0-8 3.582031-8 8s3.582031 8 8 8h24.480469c3.777343 7.507812 6.164062 15.640625 7.039062 24zm0 0"/><path d="m328 72c4.417969 0 8-3.582031 8-8s-3.582031-8-8-8h-32c-4.417969 0-8 3.582031-8 8v32c0 4.417969 3.582031 8 8 8h32c4.417969 0 8-3.582031 8-8s-3.582031-8-8-8h-24v-16zm0 0"/><path d="m328 160h-32c-4.417969 0-8 3.582031-8 8v32c0 4.417969 3.582031 8 8 8h32c4.417969 0 8-3.582031 8-8v-32c0-4.417969-3.582031-8-8-8zm-8 32h-16v-16h16zm0 0"/><path d="m104 440c4.417969 0 8-3.582031 8-8v-64c0-4.417969-3.582031-8-8-8h-32c-4.417969 0-8 3.582031-8 8v64c0 4.417969 3.582031 8 8 8s8-3.582031 8-8v-56h16v56c0 4.417969 3.582031 8 8 8zm0 0"/><path d="m168 440c4.417969 0 8-3.582031 8-8v-96c0-4.417969-3.582031-8-8-8h-32c-4.417969 0-8 3.582031-8 8v96c0 4.417969 3.582031 8 8 8s8-3.582031 8-8v-88h16v88c0 4.417969 3.582031 8 8 8zm0 0"/><path d="m152 294.398438v9.601562c0 4.417969 3.582031 8 8 8s8-3.582031 8-8v-32c0-4.417969-3.582031-8-8-8h-32c-4.417969 0-8 3.582031-8 8s3.582031 8 8 8h16c-22.03125 24.265625-54.539062 36.214844-87.039062 32-4.417969-.53125-8.429688 2.621094-8.960938 7.039062-.53125 4.417969 2.621094 8.429688 7.039062 8.960938 4.800782.636719 9.636719.957031 14.480469.960938 31.007813-.042969 60.707031-12.488282 82.480469-34.5625zm0 0"/></svg>