<svg id="Capa_1" enable-background="new 0 0 512.001 512.001" viewBox="0 0 512.001 512.001" width="14px" xmlns="http://www.w3.org/2000/svg"><g id="XMLID_2656_"><g id="XMLID_2491_"><g id="XMLID_2492_"><path id="XMLID_2497_" d="m507.091 138.393-99.849-59.057 20.425-11.792c3.094-1.786 5-5.088 5-8.66s-1.906-6.874-5-8.66l-84.666-48.884c-3.094-1.786-6.905-1.787-10 0-3.094 1.786-5 5.088-5 8.66v34.297l-154 91.085-37.417-22.131c-4.752-2.81-10.887-1.237-13.698 3.517-2.812 4.754-1.237 10.887 3.516 13.698l42.507 25.142c1.57.929 3.33 1.393 5.091 1.393 1.76 0 3.521-.465 5.091-1.393l148.909-88.074v27.883l-154 91.086-114.909-67.966c-3.092-1.828-6.926-1.858-10.045-.079-3.12 1.779-5.045 5.095-5.045 8.687v252.76c0 3.535 1.867 6.808 4.909 8.607l120 70.976c1.57.929 3.331 1.393 5.091 1.393s3.521-.464 5.091-1.393l158.909-93.989 114.909 67.965c3.091 1.827 6.926 1.857 10.045.079 3.12-1.779 5.046-5.095 5.046-8.686v-252.76c0-3.535-1.866-6.808-4.909-8.607l-99.586-58.901 23.856-13.773 104.638 61.888v331.763l-148.909-88.074c-3.14-1.857-7.042-1.857-10.182 0l-158.909 93.989-154-91.085v-331.764l28.905 17.097c4.753 2.811 10.887 1.238 13.698-3.517 2.812-4.754 1.238-10.887-3.516-13.698l-43.996-26.022c-3.091-1.828-6.925-1.859-10.045-.079-3.12 1.779-5.045 5.094-5.045 8.686v355c0 3.535 1.866 6.808 4.909 8.607l164 97c3.14 1.857 7.042 1.857 10.182 0l158.909-93.989 158.909 93.989c1.569.928 3.33 1.393 5.091 1.393 1.708 0 3.418-.437 4.955-1.313 3.12-1.779 5.045-5.095 5.045-8.686v-355.001c-.001-3.535-1.867-6.807-4.91-8.607zm-159.09-47.949v-63.124l54.667 31.562zm-284 54.234 104.909 62.05c3.14 1.857 7.042 1.857 10.182 0l43.057-25.467 14.098 19.697c18.542 25.907 48.633 41.375 80.494 41.375 13.099 0 25.796-2.725 37.739-8.1 20.502-9.224 44.503-8.268 64.203 2.562l29.317 16.119v38.976l-11.354-7.114c-19.601-12.284-42.188-18.776-65.32-18.776-25.063 0-49.911 8.278-69.967 23.31-15.971 11.97-35.759 18.561-55.718 18.561-8.021 0-14.546-6.525-14.546-14.547 0-10.458-5.734-20.008-14.964-24.924-9.232-4.919-20.357-4.347-29.035 1.49l-57.678 38.786c-6.951 4.674-15.053 7.145-23.43 7.145-23.152 0-41.988-18.835-41.988-41.987v-129.156zm279.09 200.595c-3.14-1.857-7.042-1.857-10.182 0l-158.909 93.989-110-65.06v-54.817c11.052 10.195 25.802 16.438 41.988 16.438 12.367 0 24.328-3.647 34.59-10.549l57.678-38.785c3.706-2.49 7.159-1.135 8.472-.436s4.367 2.809 4.367 7.273c0 19.049 15.498 34.546 34.546 34.546 24.255 0 48.303-8.011 67.713-22.558 16.618-12.454 37.206-19.314 57.973-19.314 19.371 0 38.286 5.436 54.7 15.723l21.973 13.769v91.831zm104.909-115.182-19.682-10.82c-25.175-13.842-55.847-15.066-82.045-3.275-9.346 4.205-19.282 6.338-29.532 6.338-25.423 0-49.434-12.342-64.23-33.016l-13.082-18.277 88.572-52.387v33.346c0 5.522 4.477 10 10 10s10-4.478 10-10v-33.346l100 59.145v52.292z"/><path id="XMLID_2494_" d="m174.001 341c-16.542 0-30 13.458-30 30s13.458 30 30 30 30-13.458 30-30-13.458-30-30-30zm0 40c-5.514 0-10-4.486-10-10s4.486-10 10-10 10 4.486 10 10-4.486 10-10 10z"/><path id="XMLID_2493_" d="m92.76 108.95c2.63 0 5.21-1.07 7.07-2.931 1.86-1.859 2.93-4.439 2.93-7.069 0-2.631-1.07-5.21-2.93-7.07s-4.44-2.93-7.07-2.93-5.21 1.069-7.07 2.93c-1.86 1.86-2.93 4.43-2.93 7.07 0 2.63 1.07 5.21 2.93 7.069 1.86 1.861 4.44 2.931 7.07 2.931z"/></g></g></g></svg>